<svg width="97" height="149" viewBox="0 0 97 149" fill="none" xmlns="http://www.w3.org/2000/svg">
<path d="M96.4 86.2C96.4 91.4 94.4 96 90.4 100C86.4 104 81.2667 106.6 75 107.8L66.2 149H38.4L53.4 106L49.6 104.8C44.2667 103.333 40.0667 102.267 37 101.6C33.9333 100.933 30.6667 100.6 27.2 100.6C18.4 100.6 11.2 102 5.6 104.8H4.8L0.6 97V96C14.3333 79.6 25.0667 64.8667 32.8 51.8C40.5333 38.7333 44.4 26.2667 44.4 14.4C44.4 10.4 43.8667 6.26666 42.8 2C45.6 1.06666 48.9333 0.599991 52.8 0.599991C58.8 0.599991 63.4667 2.26666 66.8 5.6C70.1333 8.8 71.8 12.9333 71.8 18C71.8 24 69.1333 31.1333 63.8 39.4C58.6 47.5333 52.1333 55.6667 44.4 63.8C36.8 71.8 29.3333 78.7333 22 84.6L22.2 85.2C24.6 84.2667 27.4 83.4667 30.6 82.8C33.9333 82 37.0667 81.6 40 81.6C43.3333 81.6 47.3333 82 52 82.8C56.6667 83.6 59.6 84.1333 60.8 84.4L77 37.8H89.8L80 84.2C84.6667 82.4667 88.8667 79.3333 92.6 74.8L93.2 75.2C95.3333 78.9333 96.4 82.6 96.4 86.2Z" fill="black"/>
</svg>
