<svg width="724" height="316" viewBox="0 0 724 316" fill="none" xmlns="http://www.w3.org/2000/svg">
<path d="M18.0612 284.25V307H15.0456V284.25H18.0612ZM27.5925 294.484V296.953H17.405V294.484H27.5925ZM29.1394 284.25V286.719H17.405V284.25H29.1394ZM59.1 292.75V307H56.2094V290.094H59.0219L59.1 292.75ZM64.3812 290L64.3656 292.688C64.126 292.635 63.8969 292.604 63.6781 292.594C63.4698 292.573 63.2302 292.562 62.9594 292.562C62.2927 292.562 61.7042 292.667 61.1937 292.875C60.6833 293.083 60.251 293.375 59.8969 293.75C59.5427 294.125 59.2615 294.573 59.0531 295.094C58.8552 295.604 58.725 296.167 58.6625 296.781L57.85 297.25C57.85 296.229 57.949 295.271 58.1469 294.375C58.3552 293.479 58.6729 292.688 59.1 292C59.5271 291.302 60.0687 290.76 60.725 290.375C61.3917 289.979 62.1833 289.781 63.1 289.781C63.3083 289.781 63.5479 289.807 63.8187 289.859C64.0896 289.901 64.2771 289.948 64.3812 290ZM90.295 298.734V298.375C90.295 297.156 90.4721 296.026 90.8262 294.984C91.1804 293.932 91.6908 293.021 92.3575 292.25C93.0242 291.469 93.8315 290.865 94.7794 290.438C95.7273 290 96.7898 289.781 97.9669 289.781C99.1544 289.781 100.222 290 101.17 290.438C102.128 290.865 102.941 291.469 103.607 292.25C104.285 293.021 104.8 293.932 105.154 294.984C105.509 296.026 105.686 297.156 105.686 298.375V298.734C105.686 299.953 105.509 301.083 105.154 302.125C104.8 303.167 104.285 304.078 103.607 304.859C102.941 305.63 102.134 306.234 101.186 306.672C100.248 307.099 99.1856 307.312 97.9981 307.312C96.8106 307.312 95.7429 307.099 94.795 306.672C93.8471 306.234 93.0346 305.63 92.3575 304.859C91.6908 304.078 91.1804 303.167 90.8262 302.125C90.4721 301.083 90.295 299.953 90.295 298.734ZM93.1856 298.375V298.734C93.1856 299.578 93.2846 300.375 93.4825 301.125C93.6804 301.865 93.9773 302.521 94.3731 303.094C94.7794 303.667 95.2846 304.12 95.8887 304.453C96.4929 304.776 97.196 304.938 97.9981 304.938C98.7898 304.938 99.4825 304.776 100.076 304.453C100.68 304.12 101.18 303.667 101.576 303.094C101.972 302.521 102.269 301.865 102.467 301.125C102.675 300.375 102.779 299.578 102.779 298.734V298.375C102.779 297.542 102.675 296.755 102.467 296.016C102.269 295.266 101.967 294.604 101.561 294.031C101.165 293.448 100.665 292.99 100.061 292.656C99.4669 292.323 98.769 292.156 97.9669 292.156C97.1752 292.156 96.4773 292.323 95.8731 292.656C95.2794 292.99 94.7794 293.448 94.3731 294.031C93.9773 294.604 93.6804 295.266 93.4825 296.016C93.2846 296.755 93.1856 297.542 93.1856 298.375ZM136.521 293.703V307H133.631V290.094H136.365L136.521 293.703ZM135.834 297.906L134.631 297.859C134.641 296.703 134.813 295.635 135.146 294.656C135.48 293.667 135.948 292.807 136.552 292.078C137.157 291.349 137.875 290.786 138.709 290.391C139.552 289.984 140.485 289.781 141.506 289.781C142.339 289.781 143.089 289.896 143.756 290.125C144.422 290.344 144.99 290.698 145.459 291.188C145.938 291.677 146.302 292.312 146.552 293.094C146.802 293.865 146.927 294.807 146.927 295.922V307H144.021V295.891C144.021 295.005 143.891 294.297 143.631 293.766C143.37 293.224 142.99 292.833 142.49 292.594C141.99 292.344 141.375 292.219 140.646 292.219C139.927 292.219 139.271 292.37 138.677 292.672C138.094 292.974 137.589 293.391 137.162 293.922C136.745 294.453 136.417 295.062 136.177 295.75C135.948 296.427 135.834 297.146 135.834 297.906ZM182.716 290.094V292.312H173.576V290.094H182.716ZM176.669 285.984H179.56V302.812C179.56 303.385 179.649 303.818 179.826 304.109C180.003 304.401 180.232 304.594 180.513 304.688C180.794 304.781 181.096 304.828 181.419 304.828C181.659 304.828 181.909 304.807 182.169 304.766C182.44 304.714 182.643 304.672 182.779 304.641L182.794 307C182.565 307.073 182.263 307.141 181.888 307.203C181.524 307.276 181.081 307.312 180.56 307.312C179.852 307.312 179.201 307.172 178.607 306.891C178.013 306.609 177.539 306.141 177.185 305.484C176.841 304.818 176.669 303.922 176.669 302.797V285.984ZM217.443 307.312C216.265 307.312 215.198 307.115 214.239 306.719C213.291 306.312 212.474 305.745 211.786 305.016C211.109 304.286 210.588 303.422 210.224 302.422C209.859 301.422 209.677 300.328 209.677 299.141V298.484C209.677 297.109 209.88 295.885 210.286 294.812C210.693 293.729 211.245 292.812 211.943 292.062C212.64 291.312 213.432 290.745 214.318 290.359C215.203 289.974 216.12 289.781 217.068 289.781C218.276 289.781 219.318 289.99 220.193 290.406C221.078 290.823 221.802 291.406 222.364 292.156C222.927 292.896 223.344 293.771 223.614 294.781C223.885 295.781 224.021 296.875 224.021 298.062V299.359H211.396V297H221.13V296.781C221.088 296.031 220.932 295.302 220.661 294.594C220.401 293.885 219.984 293.302 219.411 292.844C218.838 292.385 218.057 292.156 217.068 292.156C216.411 292.156 215.807 292.297 215.255 292.578C214.703 292.849 214.229 293.255 213.833 293.797C213.437 294.339 213.13 295 212.911 295.781C212.693 296.562 212.583 297.464 212.583 298.484V299.141C212.583 299.943 212.693 300.698 212.911 301.406C213.14 302.104 213.469 302.719 213.896 303.25C214.333 303.781 214.859 304.198 215.474 304.5C216.099 304.802 216.807 304.953 217.599 304.953C218.62 304.953 219.484 304.745 220.193 304.328C220.901 303.911 221.521 303.354 222.052 302.656L223.802 304.047C223.437 304.599 222.974 305.125 222.411 305.625C221.849 306.125 221.156 306.531 220.333 306.844C219.521 307.156 218.557 307.312 217.443 307.312ZM254.606 293.703V307H251.716V290.094H254.45L254.606 293.703ZM253.919 297.906L252.716 297.859C252.726 296.703 252.898 295.635 253.231 294.656C253.565 293.667 254.033 292.807 254.637 292.078C255.242 291.349 255.96 290.786 256.794 290.391C257.637 289.984 258.57 289.781 259.591 289.781C260.424 289.781 261.174 289.896 261.841 290.125C262.507 290.344 263.075 290.698 263.544 291.188C264.023 291.677 264.387 292.312 264.637 293.094C264.887 293.865 265.012 294.807 265.012 295.922V307H262.106V295.891C262.106 295.005 261.976 294.297 261.716 293.766C261.455 293.224 261.075 292.833 260.575 292.594C260.075 292.344 259.46 292.219 258.731 292.219C258.012 292.219 257.356 292.37 256.762 292.672C256.179 292.974 255.674 293.391 255.247 293.922C254.83 294.453 254.502 295.062 254.262 295.75C254.033 296.427 253.919 297.146 253.919 297.906ZM304.379 303.719V283H307.286V307H304.629L304.379 303.719ZM293.004 298.734V298.406C293.004 297.115 293.161 295.943 293.473 294.891C293.796 293.828 294.249 292.917 294.832 292.156C295.426 291.396 296.129 290.812 296.942 290.406C297.765 289.99 298.681 289.781 299.692 289.781C300.754 289.781 301.681 289.969 302.473 290.344C303.275 290.708 303.952 291.245 304.504 291.953C305.067 292.651 305.51 293.495 305.832 294.484C306.155 295.474 306.379 296.594 306.504 297.844V299.281C306.39 300.521 306.166 301.635 305.832 302.625C305.51 303.615 305.067 304.458 304.504 305.156C303.952 305.854 303.275 306.391 302.473 306.766C301.671 307.13 300.734 307.312 299.661 307.312C298.671 307.312 297.765 307.099 296.942 306.672C296.129 306.245 295.426 305.646 294.832 304.875C294.249 304.104 293.796 303.198 293.473 302.156C293.161 301.104 293.004 299.964 293.004 298.734ZM295.911 298.406V298.734C295.911 299.578 295.994 300.37 296.161 301.109C296.338 301.849 296.609 302.5 296.973 303.062C297.338 303.625 297.801 304.068 298.364 304.391C298.926 304.703 299.598 304.859 300.379 304.859C301.338 304.859 302.124 304.656 302.739 304.25C303.364 303.844 303.864 303.307 304.239 302.641C304.614 301.974 304.905 301.25 305.114 300.469V296.703C304.989 296.13 304.806 295.578 304.567 295.047C304.338 294.505 304.036 294.026 303.661 293.609C303.296 293.182 302.843 292.844 302.301 292.594C301.77 292.344 301.14 292.219 300.411 292.219C299.619 292.219 298.937 292.385 298.364 292.719C297.801 293.042 297.338 293.49 296.973 294.062C296.609 294.625 296.338 295.281 296.161 296.031C295.994 296.771 295.911 297.562 295.911 298.406ZM379.019 303.719V283H381.926V307H379.269L379.019 303.719ZM367.644 298.734V298.406C367.644 297.115 367.801 295.943 368.113 294.891C368.436 293.828 368.889 292.917 369.473 292.156C370.066 291.396 370.769 290.812 371.582 290.406C372.405 289.99 373.321 289.781 374.332 289.781C375.394 289.781 376.321 289.969 377.113 290.344C377.915 290.708 378.592 291.245 379.144 291.953C379.707 292.651 380.15 293.495 380.473 294.484C380.795 295.474 381.019 296.594 381.144 297.844V299.281C381.03 300.521 380.806 301.635 380.473 302.625C380.15 303.615 379.707 304.458 379.144 305.156C378.592 305.854 377.915 306.391 377.113 306.766C376.311 307.13 375.374 307.312 374.301 307.312C373.311 307.312 372.405 307.099 371.582 306.672C370.769 306.245 370.066 305.646 369.473 304.875C368.889 304.104 368.436 303.198 368.113 302.156C367.801 301.104 367.644 299.964 367.644 298.734ZM370.551 298.406V298.734C370.551 299.578 370.634 300.37 370.801 301.109C370.978 301.849 371.249 302.5 371.613 303.062C371.978 303.625 372.441 304.068 373.004 304.391C373.566 304.703 374.238 304.859 375.019 304.859C375.978 304.859 376.764 304.656 377.379 304.25C378.004 303.844 378.504 303.307 378.879 302.641C379.254 301.974 379.545 301.25 379.754 300.469V296.703C379.629 296.13 379.446 295.578 379.207 295.047C378.978 294.505 378.676 294.026 378.301 293.609C377.936 293.182 377.483 292.844 376.941 292.594C376.41 292.344 375.78 292.219 375.051 292.219C374.259 292.219 373.577 292.385 373.004 292.719C372.441 293.042 371.978 293.49 371.613 294.062C371.249 294.625 370.978 295.281 370.801 296.031C370.634 296.771 370.551 297.562 370.551 298.406ZM417.761 307.312C416.584 307.312 415.516 307.115 414.558 306.719C413.61 306.312 412.793 305.745 412.105 305.016C411.428 304.286 410.907 303.422 410.543 302.422C410.178 301.422 409.996 300.328 409.996 299.141V298.484C409.996 297.109 410.199 295.885 410.605 294.812C411.011 293.729 411.563 292.812 412.261 292.062C412.959 291.312 413.751 290.745 414.636 290.359C415.522 289.974 416.438 289.781 417.386 289.781C418.595 289.781 419.636 289.99 420.511 290.406C421.397 290.823 422.121 291.406 422.683 292.156C423.246 292.896 423.662 293.771 423.933 294.781C424.204 295.781 424.339 296.875 424.339 298.062V299.359H411.714V297H421.449V296.781C421.407 296.031 421.251 295.302 420.98 294.594C420.72 293.885 420.303 293.302 419.73 292.844C419.157 292.385 418.376 292.156 417.386 292.156C416.73 292.156 416.126 292.297 415.574 292.578C415.022 292.849 414.548 293.255 414.152 293.797C413.756 294.339 413.449 295 413.23 295.781C413.011 296.562 412.902 297.464 412.902 298.484V299.141C412.902 299.943 413.011 300.698 413.23 301.406C413.459 302.104 413.787 302.719 414.214 303.25C414.652 303.781 415.178 304.198 415.793 304.5C416.418 304.802 417.126 304.953 417.918 304.953C418.938 304.953 419.803 304.745 420.511 304.328C421.22 303.911 421.839 303.354 422.371 302.656L424.121 304.047C423.756 304.599 423.293 305.125 422.73 305.625C422.168 306.125 421.475 306.531 420.652 306.844C419.839 307.156 418.876 307.312 417.761 307.312ZM456.956 304.391L461.581 290.094H464.534L458.456 307H456.519L456.956 304.391ZM453.097 290.094L457.862 304.469L458.191 307H456.253L450.128 290.094H453.097ZM498.432 307.312C497.255 307.312 496.188 307.115 495.229 306.719C494.281 306.312 493.464 305.745 492.776 305.016C492.099 304.286 491.578 303.422 491.214 302.422C490.849 301.422 490.667 300.328 490.667 299.141V298.484C490.667 297.109 490.87 295.885 491.276 294.812C491.682 293.729 492.235 292.812 492.932 292.062C493.63 291.312 494.422 290.745 495.307 290.359C496.193 289.974 497.11 289.781 498.057 289.781C499.266 289.781 500.307 289.99 501.182 290.406C502.068 290.823 502.792 291.406 503.354 292.156C503.917 292.896 504.334 293.771 504.604 294.781C504.875 295.781 505.011 296.875 505.011 298.062V299.359H492.386V297H502.12V296.781C502.078 296.031 501.922 295.302 501.651 294.594C501.391 293.885 500.974 293.302 500.401 292.844C499.828 292.385 499.047 292.156 498.057 292.156C497.401 292.156 496.797 292.297 496.245 292.578C495.693 292.849 495.219 293.255 494.823 293.797C494.427 294.339 494.12 295 493.901 295.781C493.682 296.562 493.573 297.464 493.573 298.484V299.141C493.573 299.943 493.682 300.698 493.901 301.406C494.13 302.104 494.459 302.719 494.886 303.25C495.323 303.781 495.849 304.198 496.464 304.5C497.089 304.802 497.797 304.953 498.589 304.953C499.61 304.953 500.474 304.745 501.182 304.328C501.891 303.911 502.511 303.354 503.042 302.656L504.792 304.047C504.427 304.599 503.964 305.125 503.401 305.625C502.839 306.125 502.146 306.531 501.323 306.844C500.511 307.156 499.547 307.312 498.432 307.312ZM535.846 283V307H532.94V283H535.846ZM564.041 298.734V298.375C564.041 297.156 564.218 296.026 564.573 294.984C564.927 293.932 565.437 293.021 566.104 292.25C566.77 291.469 567.578 290.865 568.526 290.438C569.474 290 570.536 289.781 571.713 289.781C572.901 289.781 573.968 290 574.916 290.438C575.875 290.865 576.687 291.469 577.354 292.25C578.031 293.021 578.546 293.932 578.901 294.984C579.255 296.026 579.432 297.156 579.432 298.375V298.734C579.432 299.953 579.255 301.083 578.901 302.125C578.546 303.167 578.031 304.078 577.354 304.859C576.687 305.63 575.88 306.234 574.932 306.672C573.994 307.099 572.932 307.312 571.744 307.312C570.557 307.312 569.489 307.099 568.541 306.672C567.593 306.234 566.781 305.63 566.104 304.859C565.437 304.078 564.927 303.167 564.573 302.125C564.218 301.083 564.041 299.953 564.041 298.734ZM566.932 298.375V298.734C566.932 299.578 567.031 300.375 567.229 301.125C567.427 301.865 567.724 302.521 568.119 303.094C568.526 303.667 569.031 304.12 569.635 304.453C570.239 304.776 570.942 304.938 571.744 304.938C572.536 304.938 573.229 304.776 573.823 304.453C574.427 304.12 574.927 303.667 575.323 303.094C575.718 302.521 576.015 301.865 576.213 301.125C576.421 300.375 576.526 299.578 576.526 298.734V298.375C576.526 297.542 576.421 296.755 576.213 296.016C576.015 295.266 575.713 294.604 575.307 294.031C574.911 293.448 574.411 292.99 573.807 292.656C573.213 292.323 572.515 292.156 571.713 292.156C570.921 292.156 570.224 292.323 569.619 292.656C569.026 292.99 568.526 293.448 568.119 294.031C567.724 294.604 567.427 295.266 567.229 296.016C567.031 296.755 566.932 297.542 566.932 298.375ZM610.267 293.344V313.5H607.361V290.094H610.017L610.267 293.344ZM621.658 298.406V298.734C621.658 299.964 621.512 301.104 621.221 302.156C620.929 303.198 620.502 304.104 619.939 304.875C619.387 305.646 618.705 306.245 617.892 306.672C617.08 307.099 616.148 307.312 615.096 307.312C614.023 307.312 613.075 307.135 612.252 306.781C611.429 306.427 610.731 305.911 610.158 305.234C609.585 304.557 609.127 303.745 608.783 302.797C608.45 301.849 608.221 300.781 608.096 299.594V297.844C608.221 296.594 608.455 295.474 608.799 294.484C609.142 293.495 609.596 292.651 610.158 291.953C610.731 291.245 611.424 290.708 612.236 290.344C613.049 289.969 613.986 289.781 615.049 289.781C616.111 289.781 617.054 289.99 617.877 290.406C618.7 290.812 619.392 291.396 619.955 292.156C620.517 292.917 620.939 293.828 621.221 294.891C621.512 295.943 621.658 297.115 621.658 298.406ZM618.752 298.734V298.406C618.752 297.562 618.663 296.771 618.486 296.031C618.309 295.281 618.033 294.625 617.658 294.062C617.293 293.49 616.825 293.042 616.252 292.719C615.679 292.385 614.997 292.219 614.205 292.219C613.476 292.219 612.84 292.344 612.299 292.594C611.767 292.844 611.314 293.182 610.939 293.609C610.564 294.026 610.257 294.505 610.017 295.047C609.788 295.578 609.616 296.13 609.502 296.703V300.75C609.71 301.479 610.002 302.167 610.377 302.812C610.752 303.448 611.252 303.964 611.877 304.359C612.502 304.745 613.288 304.938 614.236 304.938C615.017 304.938 615.689 304.776 616.252 304.453C616.825 304.12 617.293 303.667 617.658 303.094C618.033 302.521 618.309 301.865 618.486 301.125C618.663 300.375 618.752 299.578 618.752 298.734ZM656.681 307.312C655.504 307.312 654.436 307.115 653.478 306.719C652.53 306.312 651.713 305.745 651.025 305.016C650.348 304.286 649.827 303.422 649.463 302.422C649.098 301.422 648.916 300.328 648.916 299.141V298.484C648.916 297.109 649.119 295.885 649.525 294.812C649.931 293.729 650.483 292.812 651.181 292.062C651.879 291.312 652.671 290.745 653.556 290.359C654.442 289.974 655.358 289.781 656.306 289.781C657.515 289.781 658.556 289.99 659.431 290.406C660.317 290.823 661.041 291.406 661.603 292.156C662.166 292.896 662.582 293.771 662.853 294.781C663.124 295.781 663.259 296.875 663.259 298.062V299.359H650.634V297H660.369V296.781C660.327 296.031 660.171 295.302 659.9 294.594C659.64 293.885 659.223 293.302 658.65 292.844C658.077 292.385 657.296 292.156 656.306 292.156C655.65 292.156 655.046 292.297 654.494 292.578C653.942 292.849 653.468 293.255 653.072 293.797C652.676 294.339 652.369 295 652.15 295.781C651.931 296.562 651.822 297.464 651.822 298.484V299.141C651.822 299.943 651.931 300.698 652.15 301.406C652.379 302.104 652.707 302.719 653.134 303.25C653.572 303.781 654.098 304.198 654.713 304.5C655.338 304.802 656.046 304.953 656.838 304.953C657.858 304.953 658.723 304.745 659.431 304.328C660.14 303.911 660.759 303.354 661.291 302.656L663.041 304.047C662.676 304.599 662.213 305.125 661.65 305.625C661.088 306.125 660.395 306.531 659.572 306.844C658.759 307.156 657.796 307.312 656.681 307.312ZM693.845 292.75V307H690.954V290.094H693.767L693.845 292.75ZM699.126 290L699.111 292.688C698.871 292.635 698.642 292.604 698.423 292.594C698.215 292.573 697.975 292.562 697.704 292.562C697.038 292.562 696.449 292.667 695.939 292.875C695.428 293.083 694.996 293.375 694.642 293.75C694.288 294.125 694.006 294.573 693.798 295.094C693.6 295.604 693.47 296.167 693.407 296.781L692.595 297.25C692.595 296.229 692.694 295.271 692.892 294.375C693.1 293.479 693.418 292.688 693.845 292C694.272 291.302 694.814 290.76 695.47 290.375C696.137 289.979 696.928 289.781 697.845 289.781C698.053 289.781 698.293 289.807 698.564 289.859C698.835 289.901 699.022 289.948 699.126 290Z" fill="white"/>
<path d="M604.286 132.6C578.126 132.6 557.066 130.32 541.106 125.76C525.146 121.08 513.506 114.24 506.186 105.24C498.986 96.12 495.386 84.84 495.386 71.4C495.386 57.96 498.986 46.74 506.186 37.74C513.506 28.62 525.146 21.78 541.106 17.22C557.066 12.54 578.126 10.2 604.286 10.2C630.446 10.2 651.506 12.54 667.466 17.22C683.426 21.78 695.006 28.62 702.206 37.74C709.526 46.74 713.186 57.96 713.186 71.4C713.186 84.84 709.526 96.12 702.206 105.24C695.006 114.24 683.426 121.08 667.466 125.76C651.506 130.32 630.446 132.6 604.286 132.6ZM604.286 98.4C616.646 98.4 627.326 97.68 636.326 96.24C645.326 94.68 652.286 91.98 657.206 88.14C662.126 84.18 664.586 78.6 664.586 71.4C664.586 64.2 662.126 58.68 657.206 54.84C652.286 50.88 645.326 48.18 636.326 46.74C627.326 45.18 616.646 44.4 604.286 44.4C591.926 44.4 581.066 45.18 571.706 46.74C562.466 48.18 555.206 50.88 549.926 54.84C544.766 58.68 542.186 64.2 542.186 71.4C542.186 78.6 544.766 84.18 549.926 88.14C555.206 91.98 562.466 94.68 571.706 96.24C581.066 97.68 591.926 98.4 604.286 98.4Z" fill="#DA0037"/>
<path d="M154.398 137.2C171.948 137.2 186.443 138.89 197.883 142.27C209.323 145.65 218.293 150.265 224.793 156.115C231.293 161.965 235.843 168.66 238.443 176.2C241.173 183.61 242.538 191.41 242.538 199.6C242.538 207.79 241.043 215.655 238.053 223.195C235.063 230.605 230.123 237.235 223.233 243.085C216.473 248.935 207.438 253.55 196.128 256.93C184.948 260.31 171.038 262 154.398 262H13.9977V137.2H154.398ZM62.7477 223H152.448C159.728 223 165.903 222.545 170.973 221.635C176.043 220.595 180.073 219.1 183.063 217.15C186.183 215.2 188.393 212.795 189.693 209.935C191.123 206.945 191.838 203.5 191.838 199.6C191.838 195.7 191.123 192.32 189.693 189.46C188.393 186.47 186.183 184 183.063 182.05C180.073 180.1 176.043 178.67 170.973 177.76C165.903 176.72 159.728 176.2 152.448 176.2H62.7477V223ZM316.59 209.35V224.95H464.79V262H267.84V137.2H464.4V174.25H316.59V189.85H437.49V209.35H316.59ZM555.982 262L480.322 137.2H535.312L599.857 257.125H579.967L644.512 137.2H698.722L623.842 262H555.982Z" fill="white"/>
<path d="M13.4 3.79999H200.6V38H13.4V3.79999ZM84.5 35.66H129.5V119H84.5V35.66ZM221.23 3.79999H266.23V119H221.23V3.79999ZM286.916 3.79999H474.116V38H286.916V3.79999ZM358.016 35.66H403.016V119H358.016V35.66ZM590.18 122.6C564.02 122.6 542.96 120.32 527 115.76C511.04 111.08 499.4 104.24 492.08 95.24C484.88 86.12 481.28 74.84 481.28 61.4C481.28 47.96 484.88 36.74 492.08 27.74C499.4 18.62 511.04 11.78 527 7.21999C542.96 2.53999 564.02 0.199995 590.18 0.199995C616.34 0.199995 637.4 2.53999 653.36 7.21999C669.32 11.78 680.9 18.62 688.1 27.74C695.42 36.74 699.08 47.96 699.08 61.4C699.08 74.84 695.42 86.12 688.1 95.24C680.9 104.24 669.32 111.08 653.36 115.76C637.4 120.32 616.34 122.6 590.18 122.6ZM590.18 88.4C602.54 88.4 613.22 87.68 622.22 86.24C631.22 84.68 638.18 81.98 643.1 78.14C648.02 74.18 650.48 68.6 650.48 61.4C650.48 54.2 648.02 48.68 643.1 44.84C638.18 40.88 631.22 38.18 622.22 36.74C613.22 35.18 602.54 34.4 590.18 34.4C577.82 34.4 566.96 35.18 557.6 36.74C548.36 38.18 541.1 40.88 535.82 44.84C530.66 48.68 528.08 54.2 528.08 61.4C528.08 68.6 530.66 74.18 535.82 78.14C541.1 81.98 548.36 84.68 557.6 86.24C566.96 87.68 577.82 88.4 590.18 88.4Z" fill="white"/>
</svg>
