<svg width="86" height="148" viewBox="0 0 86 148" fill="none" xmlns="http://www.w3.org/2000/svg">
<g clip-path="url(#clip0_33_41)">
<path d="M49.324 138.065C48.7532 138.072 48.1829 138.029 47.6196 137.937C43.5996 137.2 41.0544 134.485 38.8905 131.656C36.5933 128.616 35.5734 123.758 39.7358 119.253C40.7833 118.113 42.7267 117.015 44.6057 115.952C46.4848 114.89 48.52 113.737 48.8416 112.908C49.5308 111.145 49.5859 110.069 47.105 107.831C44.2428 105.244 44.569 103.958 45.2443 102.657C45.4429 102.373 45.5444 102.033 45.5338 101.687C45.5118 101.432 45.4316 101.185 45.2995 100.965C45.1673 100.745 44.9866 100.558 44.7711 100.419C44.206 100.094 43.3285 100.139 42.2259 100.547C42.1452 100.573 42.0584 100.575 41.9766 100.553C41.8947 100.53 41.8216 100.483 41.7665 100.419C41.7107 100.351 41.6772 100.269 41.6706 100.182C41.6641 100.095 41.6847 100.008 41.7297 99.9333C41.7297 99.9104 43.2964 97.2688 42.157 95.8999C41.5138 95.1262 40.719 95.2452 39.9517 95.3597C39.3545 95.4467 38.6745 95.552 38.3575 94.9522C38.0956 94.4623 38.3575 93.6474 38.771 92.5212C39.2029 91.2851 39.7909 89.5865 39.2948 88.8266C38.7986 88.0666 37.5811 88.2909 35.9915 88.4969C33.2349 88.8586 29.4814 89.3576 26.8948 85.4021C26.4359 84.6436 26.0336 83.8524 25.6911 83.0351C24.4185 80.2149 22.6727 76.3509 16.9069 73.8192C11.9267 71.6262 5.56368 72.9493 4.10271 73.3018V105.198H3.24817V72.9768C3.24771 72.8847 3.27756 72.7949 3.33316 72.7213C3.38876 72.6477 3.46703 72.5943 3.55599 72.5693C3.87299 72.4823 11.3295 70.4496 17.2423 73.05C23.3021 75.71 25.1215 79.7434 26.4308 82.6872C26.7549 83.467 27.1373 84.2215 27.5748 84.9442C29.8719 88.4557 33.189 88.0162 35.8445 87.6637C37.65 87.4256 39.2121 87.2059 39.9793 88.3687C40.7465 89.5316 40.085 91.2393 39.5199 92.7959C39.2948 93.4506 38.9823 94.3479 39.0604 94.5676C39.2999 94.5963 39.5426 94.5824 39.7771 94.5264C40.5857 94.4028 41.8124 94.2243 42.7634 95.3597C43.7925 96.6004 43.2964 98.4042 42.8461 99.4801C43.6118 99.2622 44.4317 99.339 45.1432 99.6952C45.4669 99.8966 45.7405 100.168 45.9434 100.49C46.1463 100.812 46.2733 101.176 46.3148 101.554C46.3649 102.079 46.2336 102.606 45.9426 103.047C45.4832 103.935 45.0238 104.85 47.6241 107.213C50.3256 109.653 50.4083 111.095 49.5767 113.215C49.1449 114.323 47.2107 115.421 44.9824 116.685C43.1447 117.72 41.2749 118.786 40.3147 119.826C35.3988 125.15 38.794 130.195 39.5199 131.152C41.5735 133.844 43.9901 136.431 47.7252 137.104C49.8616 137.493 54.1848 136.87 56.2981 135.863C59.8127 134.192 61.0302 130.964 60.0195 126.002C59.0317 121.158 61.1864 117.106 65.9277 114.877C67.4851 114.144 69.208 114.039 70.8711 113.938C74.2387 113.727 77.1423 113.549 78.4976 108.65C79.2786 105.807 78.8881 101.723 77.689 100.245C75.3597 97.3787 71.8819 97.6946 67.0533 101.22C64.9353 102.763 63.1252 103.477 61.5172 103.404C60.2538 103.353 59.1098 102.863 57.805 101.815C56.3349 100.634 56.367 99.1138 56.3946 97.6488C56.4877 96.6833 56.3654 95.7093 56.0362 94.7966C55.5768 93.7253 55.3609 93.739 54.9474 93.771C54.5936 93.8177 54.2338 93.7816 53.8965 93.6656C53.5592 93.5495 53.2536 93.3568 53.004 93.1026C52.7698 92.9158 52.5788 92.6809 52.444 92.4138C52.3093 92.1468 52.2339 91.8539 52.223 91.5552C52.2345 90.8969 52.4477 90.2579 52.834 89.7239C51.8417 89.6781 50.3853 89.4721 49.9534 88.6389C49.6272 88.0071 49.6962 87.1235 49.7559 86.3497C49.8072 85.9991 49.8072 85.6428 49.7559 85.2922C49.2965 84.9671 48.3087 85.0724 47.3255 85.1686C45.7543 85.3288 43.7971 85.5302 43.3331 83.6898C42.9748 82.2843 43.6823 80.0501 44.5 77.4634C45.157 75.3758 45.9059 73.0134 46.1264 70.8845C46.3883 68.3161 44.9503 66.9244 43.4296 65.4548C42.9702 65.0198 42.5107 64.5712 42.1156 64.0813C38.4402 59.764 38.6975 53.5514 40.4617 49.605C45.203 39.1209 55.3471 36.9737 62.9414 40.2883C71.2938 43.9143 72.2632 49.4447 72.9707 53.5102C73.3658 55.7398 73.6736 57.5024 75.1162 58.1571C75.6826 58.3971 76.3143 58.4371 76.9066 58.2706C77.499 58.1041 78.0165 57.741 78.3735 57.2414C79.1821 56.2022 79.5129 54.4304 78.0152 52.5717C77.496 51.9216 76.908 51.2211 76.2786 50.4794C72.1851 45.6128 66.5801 38.9469 67.7516 32.7205C68.3167 29.7401 69.8742 27.6433 72.1483 26.8192C74.2938 26.0409 76.398 26.604 77.4455 27.4556C81.1209 30.4406 82.7473 35.1424 82.7473 42.6964V107.373H81.9019V42.7056C81.9019 35.4262 80.3629 30.9259 76.9126 28.1148C75.9937 27.3869 74.1882 26.9794 72.4378 27.6158C71.0365 28.1286 69.2218 29.4471 68.5832 32.8853C67.4805 38.7226 72.9431 45.2099 76.9264 49.9483C77.5558 50.6946 78.1484 51.4042 78.6768 52.0543C80.4823 54.2976 79.9999 56.5364 79.0397 57.7679C78.5663 58.4169 77.8836 58.8842 77.1059 59.0917C76.3282 59.2992 75.5025 59.2343 74.7671 58.9079C72.9293 58.0701 72.5572 56.0145 72.1437 53.6384C71.427 49.5638 70.5403 44.482 62.6014 41.0437C55.3839 37.9122 45.7405 39.9633 41.2749 49.9529C39.5612 53.7895 39.5382 59.6908 42.8048 63.5502C43.1769 63.9852 43.6042 64.4018 44.059 64.8413C45.5843 66.3155 47.3117 67.9865 47.0039 70.9578C46.7788 73.1736 46.0162 75.5818 45.3454 77.7061C44.5965 80.0684 43.8936 82.2843 44.1922 83.4746C44.4587 84.5322 45.5384 84.5001 47.2796 84.3262C48.4787 84.2026 49.6135 84.0881 50.3485 84.6558C50.7482 84.9671 50.6977 85.6035 50.638 86.4093C50.5874 87.0411 50.5277 87.8331 50.7391 88.2405C51.0055 88.7533 52.6778 88.9181 53.7207 88.8678C53.8062 88.8631 53.8911 88.8844 53.9642 88.9289C54.0372 88.9734 54.095 89.0389 54.1299 89.1168C54.1647 89.1947 54.175 89.2814 54.1594 89.3652C54.1438 89.4491 54.1029 89.5263 54.0423 89.5865C54.0423 89.5865 53.0638 90.5754 53.1005 91.5231C53.1097 91.7063 53.1584 91.8853 53.2432 92.048C53.328 92.2108 53.447 92.3534 53.5921 92.4662C53.7597 92.644 53.9681 92.7785 54.1993 92.8582C54.4306 92.938 54.6779 92.9606 54.9198 92.9241C55.6319 92.8645 56.1879 92.947 56.8448 94.4486C57.2287 95.4709 57.3763 96.5663 57.2767 97.6534C57.2491 99.0268 57.2216 100.231 58.3747 101.151C59.5279 102.071 60.5156 102.525 61.5907 102.552C63.0057 102.607 64.6367 101.957 66.5893 100.528C71.7854 96.7423 75.7502 96.4676 78.3827 99.7044C79.9172 101.6 80.124 106.05 79.3475 108.861C77.836 114.355 74.3398 114.552 70.963 114.762C69.3734 114.858 67.747 114.959 66.3228 115.623C61.8985 117.701 59.9689 121.323 60.8832 125.819C61.9674 131.143 60.557 134.774 56.6978 136.609C54.9106 137.484 51.7222 138.065 49.324 138.065Z" fill="black" stroke="black"/>
<path d="M8.76586 69.3188C7.67547 69.3188 6.60957 68.9966 5.70294 68.3929C4.79631 67.7892 4.08968 66.9312 3.67241 65.9273C3.25514 64.9235 3.14596 63.8188 3.35868 62.7531C3.57141 61.6874 4.09648 60.7085 4.8675 59.9402C5.63853 59.1718 6.62087 58.6486 7.69031 58.4366C8.75975 58.2246 9.86825 58.3334 10.8756 58.7492C11.883 59.1651 12.7441 59.8692 13.3499 60.7727C13.9556 61.6762 14.279 62.7383 14.279 63.8249C14.279 65.282 13.6981 66.6794 12.6642 67.7097C11.6303 68.74 10.228 69.3188 8.76586 69.3188ZM8.76586 59.1597C7.84085 59.1597 6.93661 59.4331 6.16748 59.9452C5.39836 60.4573 4.79891 61.1852 4.44492 62.0368C4.09093 62.8884 3.99831 63.8255 4.17877 64.7296C4.35923 65.6337 4.80467 66.4641 5.45875 67.1159C6.11284 67.7677 6.94619 68.2116 7.85343 68.3914C8.76068 68.5712 9.70106 68.4789 10.5557 68.1262C11.4103 67.7734 12.1407 67.1761 12.6546 66.4096C13.1685 65.6432 13.4428 64.7421 13.4428 63.8203C13.4416 62.5846 12.9485 61.3999 12.0716 60.5261C11.1948 59.6523 10.0059 59.1609 8.76586 59.1597Z" fill="black" stroke="black"/>
<path d="M60.5018 37.1156C59.7422 37.1156 58.9996 36.8911 58.368 36.4706C57.7364 36.05 57.2441 35.4522 56.9534 34.7529C56.6627 34.0535 56.5866 33.284 56.7348 32.5415C56.883 31.7991 57.2488 31.1171 57.786 30.5818C58.3231 30.0466 59.0075 29.682 59.7525 29.5344C60.4976 29.3867 61.2698 29.4625 61.9716 29.7522C62.6734 30.0418 63.2733 30.5324 63.6953 31.1618C64.1174 31.7912 64.3426 32.5312 64.3426 33.2882C64.3426 33.7908 64.2433 34.2885 64.0503 34.7529C63.8572 35.2172 63.5743 35.6392 63.2177 35.9946C62.861 36.35 62.4376 36.6319 61.9716 36.8243C61.5056 37.0166 61.0062 37.1156 60.5018 37.1156ZM60.5018 30.3032C59.9094 30.3032 59.3302 30.4783 58.8376 30.8063C58.345 31.1343 57.9611 31.6005 57.7344 32.1459C57.5077 32.6913 57.4483 33.2915 57.5639 33.8705C57.6795 34.4496 57.9648 34.9815 58.3837 35.3989C58.8026 35.8164 59.3364 36.1007 59.9174 36.2158C60.4985 36.331 61.1008 36.2719 61.6481 36.046C62.1955 35.8201 62.6633 35.4375 62.9924 34.9466C63.3216 34.4557 63.4973 33.8786 63.4973 33.2882C63.4961 32.4969 63.1801 31.7384 62.6186 31.1788C62.0571 30.6193 61.2959 30.3044 60.5018 30.3032Z" fill="black" stroke="black"/>
<path d="M45.2443 143.994C28.2456 143.994 22.2271 127.055 20.7937 121.881C20.1918 119.711 19.9253 116.593 19.6405 113.288C19.1811 107.648 18.616 101.261 16.227 99.6723C15.8975 99.4647 15.5232 99.3382 15.1349 99.3032C14.7467 99.2681 14.3557 99.3256 13.9941 99.4709C12.8594 99.8326 12.1289 100.387 11.7659 101.201C10.8884 103.12 12.2254 106.141 13.4842 109.062C14.9176 112.354 16.2729 115.472 14.403 117.005C12.988 118.173 11.4581 118.425 9.96958 117.729C6.13796 115.93 3.24817 108.046 3.24817 103.834V86.8442H4.09351V103.834C4.09351 107.863 6.88682 115.353 10.3325 116.964C11.5362 117.527 12.694 117.331 13.8701 116.355C15.2484 115.215 14.0125 112.391 12.7078 109.396C11.3616 106.306 9.9512 103.115 10.9941 100.854C11.4535 99.8372 12.3724 99.1046 13.7507 98.6697C14.2323 98.4857 14.7507 98.4172 15.2639 98.4697C15.777 98.5222 16.2706 98.6942 16.7048 98.9719C19.4338 100.803 19.9759 107.103 20.495 113.215C20.7753 116.479 21.0372 119.565 21.6206 121.657C22.9989 126.693 28.8428 143.152 45.2581 143.152L45.2443 143.994Z" fill="black" stroke="black"/>
<path d="M82.7565 94.8698H81.9111C81.9111 89.6369 79.2051 87.682 76.3429 85.6172C73.6506 83.6715 70.8711 81.6662 70.8711 76.8133C70.8711 71.9604 73.6001 70.1337 76.2372 68.3024C79.0259 66.3704 81.9111 64.3697 81.9111 58.7614H82.7565C82.7565 64.8092 79.5405 67.0342 76.7196 68.9937C74.1468 70.7792 71.7118 72.464 71.7118 76.8133C71.7118 81.2359 74.2019 83.0351 76.839 84.9351C79.7472 87.0365 82.7565 89.2066 82.7565 94.8698Z" fill="black" stroke="black"/>
<path d="M43.425 148H42.5796C31.2905 147.988 20.4673 143.514 12.4847 135.559C4.50212 127.604 0.012161 116.819 0 105.569L0 42.4309C0.012161 31.1813 4.50212 20.3958 12.4847 12.4411C20.4673 4.4864 31.2905 0.0121186 42.5796 0L43.425 0C54.7133 0.0133301 65.5353 4.48814 73.5169 12.4427C81.4985 20.3973 85.9878 31.182 86 42.4309V105.569C85.9878 116.818 81.4985 127.603 73.5169 135.557C65.5353 143.512 54.7133 147.987 43.425 148ZM42.5796 0.842392C31.5147 0.85451 20.9065 5.24004 13.0825 13.0368C5.2584 20.8335 0.857505 31.4047 0.845344 42.4309V105.569C0.857505 116.595 5.2584 127.166 13.0825 134.963C20.9065 142.76 31.5147 147.145 42.5796 147.158H43.425C54.4894 147.145 65.0972 142.76 72.9205 134.963C80.7438 127.166 85.1437 116.595 85.1547 105.569V42.4309C85.1437 31.4051 80.7438 20.8339 72.9205 13.0371C65.0972 5.24019 54.4894 0.854512 43.425 0.842392H42.5796Z" fill="black" stroke="black"/>
<path d="M43.3377 144.04H42.6623C32.212 144.028 22.1932 139.885 14.8041 132.521C7.41503 125.157 3.25911 115.173 3.24817 104.759V43.2412C3.25911 32.8274 7.41503 22.8431 14.8041 15.479C22.1932 8.11483 32.212 3.97226 42.6623 3.96014H43.3377C53.7885 3.97226 63.8077 8.11468 71.1975 15.4787C78.5874 22.8427 82.7443 32.827 82.7565 43.2412V104.759C82.7443 115.173 78.5874 125.157 71.1975 132.521C63.8077 139.885 53.7885 144.028 43.3377 144.04ZM42.6623 4.80254C32.4294 4.80981 22.6177 8.86386 15.3819 16.0744C8.1461 23.2849 4.07784 33.0624 4.07054 43.2596V104.759C4.07784 114.956 8.1461 124.733 15.3819 131.944C22.6177 139.154 32.4294 143.208 42.6623 143.216H43.3377C53.5729 143.216 63.3889 139.164 70.6262 131.952C77.8636 124.74 81.9295 114.958 81.9295 104.759V43.2412C81.9295 38.191 80.9313 33.1902 78.9919 28.5244C77.0525 23.8586 74.2098 19.6191 70.6262 16.048C67.0426 12.477 62.7883 9.64424 58.1061 7.71159C53.424 5.77894 48.4057 4.78422 43.3377 4.78422L42.6623 4.80254Z" fill="black" stroke="black" stroke-width="2"/>
</g>
<defs>
<clipPath id="clip0_33_41">
<rect width="86" height="148" fill="white"/>
</clipPath>
</defs>
</svg>
