<svg width="73" height="37" viewBox="0 0 73 37" fill="none" xmlns="http://www.w3.org/2000/svg">
<path d="M15.8 19.2C17.6 19.2 19.0867 19.3733 20.26 19.72C21.4333 20.0667 22.3533 20.54 23.02 21.14C23.6867 21.74 24.1533 22.4267 24.42 23.2C24.7 23.96 24.84 24.76 24.84 25.6C24.84 26.44 24.6867 27.2467 24.38 28.02C24.0733 28.78 23.5667 29.46 22.86 30.06C22.1667 30.66 21.24 31.1333 20.08 31.48C18.9333 31.8267 17.5067 32 15.8 32H1.4V19.2H15.8ZM6.4 28H15.6C16.3467 28 16.98 27.9533 17.5 27.86C18.02 27.7533 18.4333 27.6 18.74 27.4C19.06 27.2 19.2867 26.9533 19.42 26.66C19.5667 26.3533 19.64 26 19.64 25.6C19.64 25.2 19.5667 24.8533 19.42 24.56C19.2867 24.2533 19.06 24 18.74 23.8C18.4333 23.6 18.02 23.4533 17.5 23.36C16.98 23.2533 16.3467 23.2 15.6 23.2H6.4V28ZM32.4352 26.6V28.2H47.6352V32H27.4352V19.2H47.5952V23H32.4352V24.6H44.8352V26.6H32.4352ZM56.9881 32L49.2281 19.2H54.8681L61.4881 31.5H59.4481L66.0681 19.2H71.6281L63.9481 32H56.9881Z" fill="black"/>
<path d="M59.97 18.36C57.354 18.36 55.248 18.132 53.652 17.676C52.056 17.208 50.892 16.524 50.16 15.624C49.44 14.712 49.08 13.584 49.08 12.24C49.08 10.896 49.44 9.774 50.16 8.874C50.892 7.962 52.056 7.278 53.652 6.822C55.248 6.354 57.354 6.12 59.97 6.12C62.586 6.12 64.692 6.354 66.288 6.822C67.884 7.278 69.042 7.962 69.762 8.874C70.494 9.774 70.86 10.896 70.86 12.24C70.86 13.584 70.494 14.712 69.762 15.624C69.042 16.524 67.884 17.208 66.288 17.676C64.692 18.132 62.586 18.36 59.97 18.36ZM59.97 14.94C61.206 14.94 62.274 14.868 63.174 14.724C64.074 14.568 64.77 14.298 65.262 13.914C65.754 13.518 66 12.96 66 12.24C66 11.52 65.754 10.968 65.262 10.584C64.77 10.188 64.074 9.918 63.174 9.774C62.274 9.618 61.206 9.54 59.97 9.54C58.734 9.54 57.648 9.618 56.712 9.774C55.788 9.918 55.062 10.188 54.534 10.584C54.018 10.968 53.76 11.52 53.76 12.24C53.76 12.96 54.018 13.518 54.534 13.914C55.062 14.298 55.788 14.568 56.712 14.724C57.648 14.868 58.734 14.94 59.97 14.94Z" fill="#DA0037"/>
<path d="M0.54 5.48H19.26V8.9H0.54V5.48ZM7.65 8.666H12.15V17H7.65V8.666ZM21.323 5.48H25.823V17H21.323V5.48ZM27.8916 5.48H46.6116V8.9H27.8916V5.48ZM35.0016 8.666H39.5016V17H35.0016V8.666ZM58.218 17.36C55.602 17.36 53.496 17.132 51.9 16.676C50.304 16.208 49.14 15.524 48.408 14.624C47.688 13.712 47.328 12.584 47.328 11.24C47.328 9.896 47.688 8.774 48.408 7.874C49.14 6.962 50.304 6.278 51.9 5.822C53.496 5.354 55.602 5.12 58.218 5.12C60.834 5.12 62.94 5.354 64.536 5.822C66.132 6.278 67.29 6.962 68.01 7.874C68.742 8.774 69.108 9.896 69.108 11.24C69.108 12.584 68.742 13.712 68.01 14.624C67.29 15.524 66.132 16.208 64.536 16.676C62.94 17.132 60.834 17.36 58.218 17.36ZM58.218 13.94C59.454 13.94 60.522 13.868 61.422 13.724C62.322 13.568 63.018 13.298 63.51 12.914C64.002 12.518 64.248 11.96 64.248 11.24C64.248 10.52 64.002 9.968 63.51 9.584C63.018 9.188 62.322 8.918 61.422 8.774C60.522 8.618 59.454 8.54 58.218 8.54C56.982 8.54 55.896 8.618 54.96 8.774C54.036 8.918 53.31 9.188 52.782 9.584C52.266 9.968 52.008 10.52 52.008 11.24C52.008 11.96 52.266 12.518 52.782 12.914C53.31 13.298 54.036 13.568 54.96 13.724C55.896 13.868 56.982 13.94 58.218 13.94Z" fill="black"/>
</svg>
